<svg xmlns="http://www.w3.org/2000/svg" width="16" height="16" viewBox="0 0 640 640" xml:space="preserve"><path style="stroke:#b3b5b3;stroke-width:2;stroke-dasharray:none;stroke-linecap:butt;stroke-dashoffset:0;stroke-linejoin:miter;stroke-miterlimit:4;fill:#b3b5b3;fill-opacity:0;fill-rule:nonzero;opacity:1" vector-effect="non-scaling-stroke" transform="translate(81 80)" d="M379.8 306c-7.8-7.8-19.8-7.8-27.6 0l-9.6 9.6-21-21c25.8-31.8 40.2-71.4 40.2-113.4 0-48.6-18.6-93.6-52.8-127.8C274.8 18.6 229.2 0 181.2 0 132.6 0 87 18.6 52.8 52.8 18.6 87 0 132.6 0 181.2c0 48.6 18.6 93.6 52.8 127.8 34.2 34.2 79.8 52.8 127.8 52.8 42 0 81.6-14.4 113.4-40.2l21 21-9 9.6c-3.6 3.6-6 8.4-6 13.8s1.8 10.2 6 13.8l94.2 94.2c3.6 3.6 9 6 13.8 6 4.8 0 10.2-1.8 13.8-6l46.2-46.2c3.6-3.6 6-8.4 6-13.8s-1.8-10.2-6-13.8z" stroke-linecap="round" fill="none"/></svg>