<svg version="1.0" xmlns="http://www.w3.org/2000/svg" width="204" height="193.333" viewBox="0 0 153 145"><path d="M13.4 5.4C7.2 8.2 6 11.1 6 22.7c0 17.2 2.6 19.7 20 19.1 9.1-.2 11.2-.6 13-2.3 3.6-3.2 5-7.8 5-16.6 0-9.1-1.6-13.8-5.8-16.6-3.6-2.3-20.3-3-24.8-.9zm50.5.9c-5.1 3.4-6.9 7.8-6.9 17 0 9.4 1.7 13.9 6.2 16.7 2.8 1.7 5 2 14.1 2h10.9l3.3-3.3c2.7-2.7 3.4-4.4 4-9.1 1-7.5.1-16.1-2-19.2C90.3 5.5 86.3 4 76.4 4c-7.8 0-9.6.3-12.5 2.3zm52.2-.5c-5.4 2.9-7.1 7.2-7.1 17.5 0 9.6 1.2 13.1 5.6 16.6 2.3 1.8 4 2.1 13.3 2.1 11.6-.1 14.1-.9 17.2-5.6 1.6-2.4 1.9-4.7 1.9-13.5 0-12-1.3-14.9-7.6-17.5-5-2.1-19.1-1.8-23.3.4zM11.8 54.6C7.2 57 6 60.7 6 72.3c0 9.1.3 10.8 2.1 13.1 3.5 4.4 7 5.6 16.6 5.6C39.8 91 44 86.9 44 72.2c0-9.9-1.6-14.4-6.2-17.2-2.7-1.7-5-2-13.3-2-6.9.1-10.9.5-12.7 1.6zm52.1-.1c-4.7 2.5-6.3 6.2-6.7 15.6-.5 10.8 1.6 16.6 7.1 19.2 4.8 2.3 19.6 2.3 24.4 0 5.5-2.6 7.6-8.4 7.1-19.2-.4-9.5-2.1-13.2-6.9-15.7-3.8-1.9-21.4-1.9-25 .1zm50.8.6c-4.5 3.4-5.7 6.9-5.7 16.6C109 87 112.9 91 128.3 91c9.6 0 13.1-1.2 16.6-5.6 1.8-2.3 2.1-4 2.1-13.3-.1-11.6-.9-14.1-5.6-17.2-2.4-1.6-4.7-1.9-13.4-1.9-9 .1-10.9.4-13.3 2.1zM13.4 102.4c-6.2 2.8-7.4 5.7-7.4 17.3C6 136.6 8.4 139 25.3 139c9.1 0 10.8-.3 13.1-2.1 4.4-3.5 5.6-7 5.6-16.4 0-9.8-1.5-14.3-5.8-17.2-3.6-2.3-20.3-3-24.8-.9zm51.7.4c-5.4 2.7-7.4 6.3-7.9 13.7-.7 10.3.5 15.4 4.3 19.2l3.3 3.3h23.4l3.3-3.3c3.8-3.8 5-8.9 4.3-19.2-.5-7.4-2.5-11-7.9-13.7-4.7-2.5-18.1-2.5-22.8 0zm53.4-1.1c-6.8 1.8-9.5 7-9.5 18.8 0 9.4 1.2 12.9 5.6 16.4 2.3 1.8 4 2.1 13.1 2.1 17.2 0 19.7-2.6 19.1-20-.3-12-1.3-14-7.5-16.6-3.1-1.3-16.5-1.8-20.8-.7z" fill="#434B4D"/></svg>