<svg version="1.0" xmlns="http://www.w3.org/2000/svg" width="202.667" height="190.667" viewBox="0 0 152 143"><path d="M12.3 6c-6 3.6-6.4 5.8-6.1 28.6l.3 20.6 3.7 3.4L14 62h21.7c24 0 25.2-.3 29-5.9 2.2-3.2 2.3-4.2 2.3-23 0-17.7-.2-19.9-2-22.8C61.5 4.5 59.4 4 36.3 4c-18.9 0-21.1.2-24 2zm82.2-1.1c-3.1 1.3-6.4 5.4-7.5 9.2-.6 1.9-1 10.8-1 19.9 0 14 .3 17.1 1.9 20.7 3.2 6.9 4.9 7.3 29.1 7.3 31.1 0 30.5.6 30.5-28 0-21.2-.5-24-5.3-27.5-2.5-1.8-4.5-2-24.2-2.2-11.8-.1-22.4.2-23.5.6zM13 82.3c-1.3.7-3.5 2.8-4.7 4.6C6.1 90.1 6 91.2 6 109.7c0 21.6.5 23.8 6.3 27.3 2.9 1.8 5.1 2 24.2 2 30.8 0 30.5.3 30.5-29.3 0-18.5-.1-19.6-2.3-22.8-1.2-1.8-3.4-3.9-4.7-4.6-3.5-1.8-43.5-1.8-47 0zm79.4.6c-5.2 3.2-5.9 6.5-5.9 27.1 0 20.7.7 23.7 6 27 3 1.8 5 2 24.5 2 19.6 0 21.5-.2 24.5-2 5.5-3.4 6.5-7.6 6.5-27.6 0-15.2-.2-18-1.9-21.2-3.5-6.8-5.2-7.2-29.3-7.2-19.1 0-21.6.2-24.4 1.9z" fill="#434B4D"/></svg>