<?xml version="1.0" standalone="no"?>
<!DOCTYPE svg PUBLIC "-//W3C//DTD SVG 20010904//EN"
 "http://www.w3.org/TR/2001/REC-SVG-20010904/DTD/svg10.dtd">
<svg version="1.0" xmlns="http://www.w3.org/2000/svg"
 width="152.000000pt" height="143.000000pt" viewBox="0 0 152.000000 143.000000"
 preserveAspectRatio="xMidYMid meet">

<g transform="translate(0.000000,143.000000) scale(0.100000,-0.100000)"
fill="#434B4D" stroke="none">
<path d="M123 1370 c-60 -36 -64 -58 -61 -286 l3 -206 37 -34 38 -34 217 0
c240 0 252 3 290 59 22 32 23 42 23 230 0 177 -2 199 -20 228 -35 58 -56 63
-287 63 -189 0 -211 -2 -240 -20z"/>
<path d="M945 1381 c-31 -13 -64 -54 -75 -92 -6 -19 -10 -108 -10 -199 0 -140
3 -171 19 -207 32 -69 49 -73 291 -73 311 0 305 -6 305 280 0 212 -5 240 -53
275 -25 18 -45 20 -242 22 -118 1 -224 -2 -235 -6z"/>
<path d="M130 607 c-13 -7 -35 -28 -47 -46 -22 -32 -23 -43 -23 -228 0 -216 5
-238 63 -273 29 -18 51 -20 242 -20 308 0 305 -3 305 293 0 185 -1 196 -23
228 -12 18 -34 39 -47 46 -35 18 -435 18 -470 0z"/>
<path d="M924 601 c-52 -32 -59 -65 -59 -271 0 -207 7 -237 60 -270 30 -18 50
-20 245 -20 196 0 215 2 245 20 55 34 65 76 65 276 0 152 -2 180 -19 212 -35
68 -52 72 -293 72 -191 0 -216 -2 -244 -19z"/>
</g>
</svg>
