<?xml version="1.0" encoding="UTF-8" standalone="no" ?>
<!DOCTYPE svg PUBLIC "-//W3C//DTD SVG 1.1//EN" "http://www.w3.org/Graphics/SVG/1.1/DTD/svg11.dtd">
<svg xmlns="http://www.w3.org/2000/svg" xmlns:xlink="http://www.w3.org/1999/xlink" version="1.1" width="16" height="16" viewBox="0 0 640 640" xml:space="preserve">
<desc>Created with Fabric.js 4.6.0</desc>
<defs>
</defs>
<g transform="matrix(1 0 0 1 321 320)" id="HOxdUUBVpqv9Y_FaA2t7Q"  >
<path style="stroke: rgb(179,181,179); stroke-width: 2; stroke-dasharray: none; stroke-linecap: butt; stroke-dashoffset: 0; stroke-linejoin: miter; stroke-miterlimit: 4; fill: rgb(179,181,179); fill-opacity: 0; fill-rule: nonzero; opacity: 1;" vector-effect="non-scaling-stroke"  transform=" translate(-240, -240)" d="M 379.8 306 C 372 298.2 360 298.2 352.2 306 L 342.59999999999997 315.6 L 321.59999999999997 294.6 C 347.4 262.8 361.79999999999995 223.20000000000002 361.79999999999995 181.20000000000002 C 361.79999999999995 132.60000000000002 343.19999999999993 87.60000000000002 308.99999999999994 53.40000000000002 C 274.79999999999995 18.600000000000023 229.19999999999993 2.1316282072803006e-14 181.19999999999993 2.1316282072803006e-14 C 132.59999999999994 2.1316282072803006e-14 86.99999999999993 18.600000000000023 52.799999999999926 52.80000000000002 C 18.599999999999923 87.00000000000003 -7.105427357601002e-14 132.60000000000002 -7.105427357601002e-14 181.20000000000002 C -7.105427357601002e-14 229.8 18.59999999999993 274.8 52.799999999999926 309 C 86.99999999999993 343.2 132.5999999999999 361.8 180.5999999999999 361.8 C 222.5999999999999 361.8 262.19999999999993 347.40000000000003 293.9999999999999 321.6 L 314.9999999999999 342.6 L 305.9999999999999 352.20000000000005 C 302.39999999999986 355.80000000000007 299.9999999999999 360.6 299.9999999999999 366.00000000000006 C 299.9999999999999 371.40000000000003 301.7999999999999 376.20000000000005 305.9999999999999 379.80000000000007 L 400.1999999999999 474.00000000000006 C 403.7999999999999 477.6000000000001 409.1999999999999 480.00000000000006 413.9999999999999 480.00000000000006 C 418.7999999999999 480.00000000000006 424.1999999999999 478.20000000000005 427.7999999999999 474.00000000000006 L 473.9999999999999 427.80000000000007 C 477.5999999999999 424.20000000000005 479.9999999999999 419.4000000000001 479.9999999999999 414.00000000000006 C 479.9999999999999 408.6000000000001 478.1999999999999 403.80000000000007 473.9999999999999 400.20000000000005 z" stroke-linecap="round" />
</g>
</svg>