<?xml version="1.0" encoding="UTF-8"?>
<svg width="22px" height="19px" viewBox="0 0 22 19" version="1.1" xmlns="http://www.w3.org/2000/svg" xmlns:xlink="http://www.w3.org/1999/xlink">
    <!-- Generator: Sketch 55.2 (78181) - https://sketchapp.com -->
    <title>Basket_1</title>
    <desc>Created with Sketch.</desc>
    <g id="Profile" stroke="none" stroke-width="1" fill="none" fill-rule="evenodd">
        <g id="Basket_1" stroke="#333333">
            <path d="M9,16.5 L13,16.5" id="Path-4" stroke-linecap="round" stroke-linejoin="round"></path>
            <path d="M1,1 L3.33353922,1 C3.82288532,1 4.24035173,1.35412797 4.32015263,1.8369234 L6,12 L5.54545455,14" id="Path-4" stroke-linecap="round" stroke-linejoin="round"></path>
            <path d="M5,4 L20.4998002,4 C20.7759426,4 20.9998002,4.22385763 20.9998002,4.5 C20.9998002,4.54691287 20.993198,4.59359231 20.9801876,4.63866501 L19.3365243,10.3329281 C19.2207419,10.7340418 18.8679549,11.021016 18.4516699,11.052712 L6.01028374,12" id="Path-5"></path>
            <path d="M16,18.5 C16.8284271,18.5 17.5,17.8284271 17.5,17 C17.5,16.1715729 16.8284271,15.5 16,15.5 C15.1715729,15.5 14.5,16.1715729 14.5,17 C14.5,17.8284271 15.1715729,18.5 16,18.5 Z M15.2928932,15.5 L16.7071068,15.5 L17.5,16.2928932 L17.5,17.7071068 L16.7071068,18.5 L15.2928932,18.5 L14.5,17.7071068 L14.5,16.2928932 L15.2928932,15.5 Z" id="Combined-Shape"></path>
            <path d="M6,18.5 C6.82842712,18.5 7.5,17.8284271 7.5,17 C7.5,16.1715729 6.82842712,15.5 6,15.5 C5.17157288,15.5 4.5,16.1715729 4.5,17 C4.5,17.8284271 5.17157288,18.5 6,18.5 Z M5.29289322,15.5 L6.70710678,15.5 L7.5,16.2928932 L7.5,17.7071068 L6.70710678,18.5 L5.29289322,18.5 L4.5,17.7071068 L4.5,16.2928932 L5.29289322,15.5 Z" id="Combined-Shape"></path>
        </g>
    </g>
</svg>