<?xml version="1.0" standalone="no"?>
<!DOCTYPE svg PUBLIC "-//W3C//DTD SVG 20010904//EN"
 "http://www.w3.org/TR/2001/REC-SVG-20010904/DTD/svg10.dtd">
<svg version="1.0" xmlns="http://www.w3.org/2000/svg"
 width="153.000000pt" height="145.000000pt" viewBox="0 0 153.000000 145.000000"
 preserveAspectRatio="xMidYMid meet">

<g transform="translate(0.000000,145.000000) scale(0.100000,-0.100000)"
fill="#434B4D" stroke="none">
<path d="M134 1396 c-62 -28 -74 -57 -74 -173 0 -172 26 -197 200 -191 91 2
112 6 130 23 36 32 50 78 50 166 0 91 -16 138 -58 166 -36 23 -203 30 -248 9z"/>
<path d="M639 1387 c-51 -34 -69 -78 -69 -170 0 -94 17 -139 62 -167 28 -17
50 -20 141 -20 l109 0 33 33 c27 27 34 44 40 91 10 75 1 161 -20 192 -32 49
-72 64 -171 64 -78 0 -96 -3 -125 -23z"/>
<path d="M1161 1392 c-54 -29 -71 -72 -71 -175 0 -96 12 -131 56 -166 23 -18
40 -21 133 -21 116 1 141 9 172 56 16 24 19 47 19 135 0 120 -13 149 -76 175
-50 21 -191 18 -233 -4z"/>
<path d="M118 904 c-46 -24 -58 -61 -58 -177 0 -91 3 -108 21 -131 35 -44 70
-56 166 -56 151 0 193 41 193 188 0 99 -16 144 -62 172 -27 17 -50 20 -133 20
-69 -1 -109 -5 -127 -16z"/>
<path d="M639 905 c-47 -25 -63 -62 -67 -156 -5 -108 16 -166 71 -192 48 -23
196 -23 244 0 55 26 76 84 71 192 -4 95 -21 132 -69 157 -38 19 -214 19 -250
-1z"/>
<path d="M1147 899 c-45 -34 -57 -69 -57 -166 0 -153 39 -193 193 -193 96 0
131 12 166 56 18 23 21 40 21 133 -1 116 -9 141 -56 172 -24 16 -47 19 -134
19 -90 -1 -109 -4 -133 -21z"/>
<path d="M134 426 c-62 -28 -74 -57 -74 -173 0 -169 24 -193 193 -193 91 0
108 3 131 21 44 35 56 70 56 164 0 98 -15 143 -58 172 -36 23 -203 30 -248 9z"/>
<path d="M651 422 c-54 -27 -74 -63 -79 -137 -7 -103 5 -154 43 -192 l33 -33
117 0 117 0 33 33 c38 38 50 89 43 192 -5 74 -25 110 -79 137 -47 25 -181 25
-228 0z"/>
<path d="M1185 433 c-68 -18 -95 -70 -95 -188 0 -94 12 -129 56 -164 23 -18
40 -21 131 -21 172 0 197 26 191 200 -3 120 -13 140 -75 166 -31 13 -165 18
-208 7z"/>
</g>
</svg>
